<svg viewBox="0 0 28 28" xmlns="http://www.w3.org/2000/svg">
  <defs>
    <linearGradient id="grad1" x1="0%" y1="0%" x2="100%" y2="100%">
      <stop offset="0%" style="stop-color:#4F8CF7" />
      <stop offset="100%" style="stop-color:#A855F7" />
    </linearGradient>
  </defs>
  <g id="Layer_2" data-name="Layer 2">
    <path fill="url(#grad1)" d="m24.51 7.14-10-6a1 1 0 0 0 -1 0l-10 6a1 1 0 0 0 -.51.94l.64 7.62a10 10 0 0 0 4.47 7.57l5.34 3.56a1 1 0 0 0 1.1 0l5.34-3.56a10 10 0 0 0 4.47-7.57l.64-7.62a1 1 0 0 0 -.49-.94zm-2.14 8.39a8.07 8.07 0 0 1 -3.59 6.08l-4.78 3.19-4.78-3.19a8.07 8.07 0 0 1 -3.59-6.08l-.58-7 9-5.37 9 5.37z"/>
    <path fill="url(#grad1)" d="m10.71 12.29a1 1 0 0 0 -1.42 1.42l3 3a1 1 0 0 0 1.42 0l5-5a1 1 0 0 0 -1.42-1.42l-4.29 4.3z"/>
  </g>
</svg>