<svg id="Layer_5" enable-background="new 0 0 64 64" viewBox="0 0 64 64" xmlns="http://www.w3.org/2000/svg">
  <defs>
    <linearGradient id="grad1" x1="0%" y1="0%" x2="100%" y2="100%">
      <stop offset="0%" style="stop-color:#4F8CF7" />
      <stop offset="100%" style="stop-color:#A855F7" />
    </linearGradient>
  </defs>
  <path fill="url(#grad1)" d="m52 16c2.206 0 4-1.794 4-4s-1.794-4-4-4-4 1.794-4 4 1.794 4 4 4zm0-6c1.103 0 2 .897 2 2s-.897 2-2 2-2-.897-2-2 .897-2 2-2z"/>
  <path fill="url(#grad1)" d="m50.285 31.353-2.007-5.218 6.598-6.598c3.943-3.942 6.742-8.886 8.094-14.296l.03-.241c0-2.206-1.794-4-4-4l-.242.03c-4.309 1.077-8.311 3.084-11.758 5.843v-5.873h-35.414l-10.586 10.586v51.414h46c8.822 0 16-7.178 16-16 0-7.625-5.316-14.106-12.715-15.647zm-15.391 22.647c-1.039-1.789-1.689-3.825-1.844-6h6.97c.053 2.164.277 4.184.645 6zm6.25 2c.51 1.777 1.175 3.281 1.956 4.436-2.69-.782-5.049-2.346-6.808-4.436zm-36.73-45 6.586-6.586v6.586zm2.586 2h6v-6h28v5.586l-3.136 3.136-10.112-3.889-4.166 4.167 1 1h-17.586zm19.414 3 1.834-1.833 8.068 3.103-4.316 4.316zm6.86 9.688 5.038 5.038-2.115 1.057-3.98-3.98zm3.14.312 5.672-5.672c.209-.209.498-.328.793-.328.618 0 1.121.503 1.121 1.121 0 .295-.119.584-.328.793l-5.672 5.672zm5.24 8.068.739.739c-.471.934-.885 2.001-1.226 3.193h-4.875c1.421-1.695 3.247-3.057 5.362-3.932zm9.615 5.932c.407 1.846.646 3.884.703 6h-9.948c.058-2.135.296-4.178.696-6zm-8.012-2c.192-.604.398-1.18.628-1.701l1.701 1.701zm-8.367 2h5.792c-.379 1.856-.602 3.892-.657 6h-6.986c.155-2.148.805-4.192 1.851-6zm7.13 8h9.96c-.059 2.223-.305 4.248-.687 6h-8.587c-.382-1.752-.627-3.777-.686-6zm11.959 0h6.97c-.155 2.175-.805 4.211-1.844 6h-5.772c.369-1.816.593-3.836.646-6zm-.007-2c-.055-2.098-.277-4.13-.659-6h5.822c1.032 1.794 1.668 3.834 1.82 6zm3.769-8h-7.326l1.752-1.752-1.003-2.607c2.62.81 4.886 2.339 6.577 4.359zm-7.908-2.248-1.833 1.834-5.586-5.586 4.316-4.316zm9.279-32.749c1.014.057 1.828.871 1.885 1.885-1.276 5.007-3.881 9.581-7.535 13.236l-12.462 12.462-1.586-1.586 5.672-5.672c.581-.581.914-1.385.914-2.207 0-1.721-1.4-3.121-3.121-3.121-.822 0-1.626.333-2.207.914l-5.672 5.672-1.586-1.586 12.462-12.462c3.655-3.654 8.229-6.259 13.236-7.535zm-14.112 5.618c-.178.169-.364.329-.538.503l-1.462 1.462v-5.586h-30v-2h32zm-42 52.379v-48h2v6h21.586l4 4 .707.707.49.49-2 4 6.02 6.02 4-2 .335.335c-5.52 2.627-9.138 8.25-9.138 14.448 0 6.02 3.345 11.269 8.271 14zm40.234-5h7.531c-.985 3.13-2.418 5-3.766 5s-2.779-1.87-3.765-5zm7.665 4.436c.781-1.156 1.446-2.659 1.956-4.436h4.853c-1.759 2.09-4.118 3.654-6.809 4.436z"/>
  <path fill="url(#grad1)" d="m44 42h2v2h-2z"/>
  <path fill="url(#grad1)" d="m48 42h2v2h-2z"/>
  <path fill="url(#grad1)" d="m44 50h2v2h-2z"/>
  <path fill="url(#grad1)" d="m48 50h2v2h-2z"/>
  <path fill="url(#grad1)" d="m29 37h-6v20h-2v-16h-6v16h-2v-12h-6v12h-2v2h26v-2h-2zm-4 2h2v18h-2zm-8 4h2v14h-2zm-8 4h2v10h-2z"/>
  <path fill="url(#grad1)" d="m5 21h2v2h-2z"/>
  <path fill="url(#grad1)" d="m9 21h16v2h-16z"/>
  <path fill="url(#grad1)" d="m5 25h20v2h-20z"/>
  <path fill="url(#grad1)" d="m5 29h20v2h-20z"/>
  <path fill="url(#grad1)" d="m5 33h12v2h-12z"/>
  <path fill="url(#grad1)" d="m19 33h2v2h-2z"/>
  <path fill="url(#grad1)" d="m23 33h2v2h-2z"/>
</svg>